HIERARCHY
ROOT Hips
{
  OFFSET 0.000 65.212 0.000
  CHANNELS 6 Xposition Yposition Zposition Zrotation Xrotation Yrotation
  JOINT LeftUpLeg
  {
    OFFSET 8.511 1.985 1.450
    CHANNELS 6 Xposition Yposition Zposition Zrotation Xrotation Yrotation
    JOINT LeftLeg
    {
      OFFSET 0.000 -31.708 0.000
      CHANNELS 6 Xposition Yposition Zposition Zrotation Xrotation Yrotation
      JOINT LeftFoot
      {
        OFFSET 0.000 -35.489 0.000
        CHANNELS 6 Xposition Yposition Zposition Zrotation Xrotation Yrotation
        End Site
        {
          OFFSET 0.000 0.000 12.100
        }
      }
    }
  }
  JOINT RightUpLeg
  {
    OFFSET -8.511 1.985 1.450
    CHANNELS 6 Xposition Yposition Zposition Zrotation Xrotation Yrotation
    JOINT RightLeg
    {
      OFFSET 0.000 -31.708 0.000
      CHANNELS 6 Xposition Yposition Zposition Zrotation Xrotation Yrotation
      JOINT RightFoot
      {
        OFFSET 0.000 -35.489 0.000
        CHANNELS 6 Xposition Yposition Zposition Zrotation Xrotation Yrotation
        End Site
        {
          OFFSET 0.000 0.000 12.100
        }
      }
    }
  }
  JOINT Spine
  {
    OFFSET 0.000 34.300 0.000
    CHANNELS 6 Xposition Yposition Zposition Zrotation Xrotation Yrotation
    JOINT Spine1
    {
      OFFSET 0.000 25.000 0.000
      CHANNELS 6 Xposition Yposition Zposition Zrotation Xrotation Yrotation
      JOINT LeftShoulder
      {
        OFFSET 1.800 -0.600 0.200
        CHANNELS 6 Xposition Yposition Zposition Zrotation Xrotation Yrotation
        JOINT LeftArm
        {
          OFFSET 14.120 0.000 0.000
          CHANNELS 6 Xposition Yposition Zposition Zrotation Xrotation Yrotation
          JOINT LeftForeArm
          {
            OFFSET 26.666 0.000 0.000
            CHANNELS 6 Xposition Yposition Zposition Zrotation Xrotation Yrotation
            JOINT LeftHand
            {
              OFFSET 21.978 0.000 0.000
              CHANNELS 6 Xposition Yposition Zposition Zrotation Xrotation Yrotation
              JOINT LeftHandThumb1
              {
                OFFSET 4.877 -1.044 3.608
                CHANNELS 6 Xposition Yposition Zposition Zrotation Xrotation Yrotation
                JOINT LeftHandThumb2
                {
                  OFFSET 2.665 -0.000 0.000
                  CHANNELS 6 Xposition Yposition Zposition Zrotation Xrotation Yrotation
                  JOINT LeftHandThumb3
                  {
                    OFFSET 2.543 0.000 0.000
                    CHANNELS 6 Xposition Yposition Zposition Zrotation Xrotation Yrotation
                    End Site
                    {
                      OFFSET 2.667 0.000 0.000
                    }
                  }
                }
              }
              JOINT LeftHandIndex1
              {
                OFFSET 9.232 -0.301 2.144
                CHANNELS 6 Xposition Yposition Zposition Zrotation Xrotation Yrotation
                JOINT LeftHandIndex2
                {
                  OFFSET 4.225 0.000 0.000
                  CHANNELS 6 Xposition Yposition Zposition Zrotation Xrotation Yrotation
                  JOINT LeftHandIndex3
                  {
                    OFFSET 2.654 0.000 0.000
                    CHANNELS 6 Xposition Yposition Zposition Zrotation Xrotation Yrotation
                    End Site
                    {
                      OFFSET 1.958 -0.000 -0.000
                    }
                  }
                }
              }
              JOINT LeftHandMiddle1
              {
                OFFSET 8.920 0.000 0.000
                CHANNELS 6 Xposition Yposition Zposition Zrotation Xrotation Yrotation
                JOINT LeftHandMiddle2
                {
                  OFFSET 4.863 0.000 -0.000
                  CHANNELS 6 Xposition Yposition Zposition Zrotation Xrotation Yrotation
                  JOINT LeftHandMiddle3
                  {
                    OFFSET 2.765 -0.000 0.000
                    CHANNELS 6 Xposition Yposition Zposition Zrotation Xrotation Yrotation
                    End Site
                    {
                      OFFSET 2.006 -0.000 -0.000
                    }
                  }
                }
              }
              JOINT LeftHandRing1
              {
                OFFSET 8.689 -0.126 -2.087
                CHANNELS 6 Xposition Yposition Zposition Zrotation Xrotation Yrotation
                JOINT LeftHandRing2
                {
                  OFFSET 4.538 -0.000 0.000
                  CHANNELS 6 Xposition Yposition Zposition Zrotation Xrotation Yrotation
                  JOINT LeftHandRing3
                  {
                    OFFSET 2.305 0.000 0.000
                    CHANNELS 6 Xposition Yposition Zposition Zrotation Xrotation Yrotation
                    End Site
                    {
                      OFFSET 1.923 0.000 -0.000
                    }
                  }
                }
              }
              JOINT LeftHandPinky1
              {
                OFFSET 8.391 -0.817 -3.758
                CHANNELS 6 Xposition Yposition Zposition Zrotation Xrotation Yrotation
                JOINT LeftHandPinky2
                {
                  OFFSET 3.044 0.000 0.000
                  CHANNELS 6 Xposition Yposition Zposition Zrotation Xrotation Yrotation
                  JOINT LeftHandPinky3
                  {
                    OFFSET 1.975 -0.000 0.000
                    CHANNELS 6 Xposition Yposition Zposition Zrotation Xrotation Yrotation
                    End Site
                    {
                      OFFSET 1.667 0.000 -0.000
                    }
                  }
                }
              }
            }
          }
        }
      }
      JOINT RightShoulder
      {
        OFFSET -1.800 -0.600 0.200
        CHANNELS 6 Xposition Yposition Zposition Zrotation Xrotation Yrotation
        JOINT RightArm
        {
          OFFSET -14.120 0.000 0.000
          CHANNELS 6 Xposition Yposition Zposition Zrotation Xrotation Yrotation
          JOINT RightForeArm
          {
            OFFSET -26.666 0.000 0.000
            CHANNELS 6 Xposition Yposition Zposition Zrotation Xrotation Yrotation
            JOINT RightHand
            {
              OFFSET -21.978 0.000 0.000
              CHANNELS 6 Xposition Yposition Zposition Zrotation Xrotation Yrotation
              JOINT RightHandThumb1
              {
                OFFSET -4.877 -1.044 3.608
                CHANNELS 6 Xposition Yposition Zposition Zrotation Xrotation Yrotation
                JOINT RightHandThumb2
                {
                  OFFSET -2.665 0.000 -0.000
                  CHANNELS 6 Xposition Yposition Zposition Zrotation Xrotation Yrotation
                  JOINT RightHandThumb3
                  {
                    OFFSET -2.543 -0.000 0.000
                    CHANNELS 6 Xposition Yposition Zposition Zrotation Xrotation Yrotation
                    End Site
                    {
                      OFFSET -2.667 0.000 0.000
                    }
                  }
                }
              }
              JOINT RightHandIndex1
              {
                OFFSET -9.232 -0.301 2.144
                CHANNELS 6 Xposition Yposition Zposition Zrotation Xrotation Yrotation
                JOINT RightHandIndex2
                {
                  OFFSET -4.225 0.000 -0.000
                  CHANNELS 6 Xposition Yposition Zposition Zrotation Xrotation Yrotation
                  JOINT RightHandIndex3
                  {
                    OFFSET -2.654 0.000 -0.000
                    CHANNELS 6 Xposition Yposition Zposition Zrotation Xrotation Yrotation
                    End Site
                    {
                      OFFSET -1.958 -0.000 0.000
                    }
                  }
                }
              }
              JOINT RightHandMiddle1
              {
                OFFSET -8.920 0.000 0.000
                CHANNELS 6 Xposition Yposition Zposition Zrotation Xrotation Yrotation
                JOINT RightHandMiddle2
                {
                  OFFSET -4.863 0.000 -0.000
                  CHANNELS 6 Xposition Yposition Zposition Zrotation Xrotation Yrotation
                  JOINT RightHandMiddle3
                  {
                    OFFSET -2.765 0.000 0.000
                    CHANNELS 6 Xposition Yposition Zposition Zrotation Xrotation Yrotation
                    End Site
                    {
                      OFFSET -2.006 0.000 0.000
                    }
                  }
                }
              }
              JOINT RightHandRing1
              {
                OFFSET -8.689 -0.126 -2.087
                CHANNELS 6 Xposition Yposition Zposition Zrotation Xrotation Yrotation
                JOINT RightHandRing2
                {
                  OFFSET -4.538 0.000 -0.000
                  CHANNELS 6 Xposition Yposition Zposition Zrotation Xrotation Yrotation
                  JOINT RightHandRing3
                  {
                    OFFSET -2.305 0.000 0.000
                    CHANNELS 6 Xposition Yposition Zposition Zrotation Xrotation Yrotation
                    End Site
                    {
                      OFFSET -1.923 0.000 -0.000
                    }
                  }
                }
              }
              JOINT RightHandPinky1
              {
                OFFSET -8.391 -0.817 -3.758
                CHANNELS 6 Xposition Yposition Zposition Zrotation Xrotation Yrotation
                JOINT RightHandPinky2
                {
                  OFFSET -3.044 0.000 0.000
                  CHANNELS 6 Xposition Yposition Zposition Zrotation Xrotation Yrotation
                  JOINT RightHandPinky3
                  {
                    OFFSET -1.975 0.000 0.000
                    CHANNELS 6 Xposition Yposition Zposition Zrotation Xrotation Yrotation
                    End Site
                    {
                      OFFSET -1.667 0.000 0.000
                    }
                  }
                }
              }
            }
          }
        }
      }
      JOINT Neck
      {
        OFFSET 0.000 0.800 0.000
        CHANNELS 6 Xposition Yposition Zposition Zrotation Xrotation Yrotation
        JOINT Head
        {
          OFFSET 0.000 6.926 0.000
          CHANNELS 6 Xposition Yposition Zposition Zrotation Xrotation Yrotation
          End Site
          {
            OFFSET 0.000 12.653 0.000
          }
        }
      }
    }
  }
}
MOTION
Frames:	4
Frame Time:	0.033333
111.93629 79.07387 -184.86794 -1.58384 -0.76834 -85.24677 8.92693 1.97994 2.06462 11.36330 -5.82513 -4.92496 0.00219 -37.05207 0.01004 -15.07081 -5.85758 44.42227 0.01108 -27.42813 0.00083 -41.88421 25.02611 63.80014 -3.18580 -1.09961 2.07103 13.36097 27.82103 -6.76571 0.00001 -33.68967 0.00557 -3.94568 1.96945 6.96546 -0.00004 -29.39771 -0.00514 0.85239 -11.56601 4.23499 -0.00275 30.74096 -0.00135 -1.63820 1.35751 -0.44001 -0.00289 22.48670 -0.00370 -1.88090 1.47810 -0.66397 0.89083 -0.65402 0.22933 -35.21096 7.99072 -11.12321 10.31225 0.00718 0.00641 -36.04366 0.06265 10.11816 27.48833 0.00336 0.00162 -0.07146 -7.08532 -17.86074 26.10828 -0.11618 -0.01529 58.46307 -36.31803 -9.79339 4.87700 -1.04399 3.60799 -24.66569 4.20855 -9.07947 2.66500 -0.00001 0.00000 -0.00000 0.00000 10.00000 2.54297 0.00000 0.00000 0.00000 -0.00000 14.99999 9.23200 -0.30100 2.14400 -20.00000 -0.00000 0.00000 4.22499 0.00000 0.00000 -25.00000 0.00000 0.00001 2.65400 0.00001 0.00000 -29.90550 2.49762 -4.33287 8.92000 0.00002 0.00000 -20.00000 -0.00000 0.00000 4.86300 0.00002 -0.00000 -25.00000 0.00000 0.00001 2.76501 -0.00001 0.00001 -29.90550 2.49761 -4.33287 8.68899 -0.12597 -2.08701 -20.00000 -0.00000 0.00000 4.53802 -0.00002 0.00001 -25.00000 0.00000 0.00001 2.30498 0.00000 0.00000 -29.90550 2.49761 -4.33287 8.39099 -0.81699 -3.75801 -20.00000 -0.00000 0.00000 3.04401 0.00001 0.00000 -25.00000 0.00000 0.00001 1.97501 -0.00001 0.00002 -29.90550 2.49762 -4.33287 -2.02937 -0.93829 0.21777 24.77821 2.60318 5.61675 -20.18424 0.02045 0.01709 70.77429 17.95089 -4.75445 -28.08107 0.00334 -0.00593 -1.08083 8.35674 20.98073 -21.29041 0.01029 -0.00369 -1.98622 12.75601 -35.45619 -4.87701 -1.04401 3.60799 37.43813 21.26626 8.20657 -2.66500 0.00000 -0.00002 -0.00001 -0.00000 -5.00000 -2.54301 -0.00002 0.00002 0.00001 0.00000 -60.00000 -9.23200 -0.30101 2.14400 80.00001 -0.00001 0.00001 -4.22499 0.00002 -0.00005 90.00000 -0.00000 0.00001 -2.65400 0.00000 -0.00002 70.00000 -0.00000 0.00001 -8.92000 0.00000 0.00000 80.00000 -0.00001 0.00001 -4.86302 0.00000 -0.00002 90.00000 -0.00000 0.00001 -2.76499 0.00000 0.00000 69.99999 -0.00000 0.00001 -8.68899 -0.12600 -2.08697 80.00000 -0.00001 0.00001 -4.53800 0.00001 -0.00002 90.00000 -0.00000 0.00001 -2.30499 0.00000 0.00000 69.99999 -0.00000 0.00001 -8.39100 -0.81700 -3.75800 80.00001 -0.00001 0.00001 -3.04401 0.00000 0.00000 90.00000 -0.00000 0.00001 -1.97500 0.00001 0.00000 70.00000 -0.00000 0.00001 0.00384 0.73292 0.00122 0.00002 0.01176 0.00487 -0.00043 6.65393 0.03840 16.29189 22.32985 52.07666 
111.85574 79.12128 -184.74255 -1.64445 -0.94749 -85.30566 8.95485 1.95256 2.06462 10.89544 -5.71953 -4.73348 0.00219 -37.07773 0.01004 -14.79158 -5.80995 47.29202 0.01108 -27.42813 0.00083 -41.40697 26.51644 62.44014 -3.20435 -1.09961 2.06568 13.18651 27.64594 -6.63099 0.00001 -33.76997 0.00557 -3.92399 1.97217 6.93271 -0.00004 -29.33368 -0.00514 0.82075 -11.32624 4.16286 -0.00275 30.75472 -0.00135 -1.73457 1.41487 -0.42043 -0.00289 22.49496 -0.00370 -1.84113 1.41206 -0.66731 0.89083 -0.65942 0.22933 -35.34888 7.98321 -11.06645 10.32652 0.00718 0.00641 -35.83610 -0.77213 10.28990 27.40492 0.00336 0.00162 2.21247 -7.66640 -17.70857 24.96881 -0.19021 -0.03027 33.27960 -23.14119 -16.59457 4.87700 -1.04399 3.60799 -24.66569 4.20855 -9.07947 2.66500 -0.00001 0.00000 -0.00000 0.00000 10.00000 2.54297 0.00000 0.00000 0.00000 -0.00000 14.99999 9.23200 -0.30100 2.14400 -20.00000 -0.00000 0.00000 4.22499 0.00000 0.00000 -25.00000 0.00000 0.00001 2.65400 0.00001 0.00000 -29.90550 2.49762 -4.33287 8.92000 0.00002 0.00000 -20.00000 -0.00000 0.00000 4.86300 0.00002 -0.00000 -25.00000 0.00000 0.00001 2.76501 -0.00001 0.00001 -29.90550 2.49761 -4.33287 8.68899 -0.12597 -2.08701 -20.00000 -0.00000 0.00000 4.53802 -0.00002 0.00001 -25.00000 0.00000 0.00001 2.30498 0.00000 0.00000 -29.90550 2.49761 -4.33287 8.39099 -0.81699 -3.75801 -20.00000 -0.00000 0.00000 3.04401 0.00001 0.00000 -25.00000 0.00000 0.00001 1.97501 -0.00001 0.00002 -29.90550 2.49762 -4.33287 -2.02937 -0.93829 0.21777 24.65479 2.57483 5.58908 -20.19737 0.02045 0.01709 70.84089 18.02061 -4.72280 -28.14188 0.00334 -0.00593 -1.08634 8.29580 20.57542 -21.29041 0.01029 -0.00369 -3.68416 11.94807 -31.66956 -4.87701 -1.04401 3.60799 37.43813 21.26626 8.20657 -2.66500 0.00000 -0.00002 -0.00001 -0.00000 -5.00000 -2.54301 -0.00002 0.00002 0.00001 0.00000 -60.00000 -9.23200 -0.30101 2.14400 80.00001 -0.00001 0.00001 -4.22499 0.00002 -0.00005 90.00000 -0.00000 0.00001 -2.65400 0.00000 -0.00002 70.00000 -0.00000 0.00001 -8.92000 0.00000 0.00000 80.00000 -0.00001 0.00001 -4.86302 0.00000 -0.00002 90.00000 -0.00000 0.00001 -2.76499 0.00000 0.00000 69.99999 -0.00000 0.00001 -8.68899 -0.12600 -2.08697 80.00000 -0.00001 0.00001 -4.53800 0.00001 -0.00002 90.00000 -0.00000 0.00001 -2.30499 0.00000 0.00000 69.99999 -0.00000 0.00001 -8.39100 -0.81700 -3.75800 80.00001 -0.00001 0.00001 -3.04401 0.00000 0.00000 90.00000 -0.00000 0.00001 -1.97500 0.00001 0.00000 70.00000 -0.00000 0.00001 0.00384 0.73292 0.00122 0.00002 0.01176 0.00487 -0.00043 6.64784 0.03101 16.35064 22.20057 51.12627 
111.76283 79.13287 -184.61630 -1.73758 -1.11759 -85.36222 8.97089 1.92846 2.06462 10.49143 -5.55503 -4.59929 0.00219 -37.07464 0.01004 -14.57981 -5.87581 50.03160 0.00773 -27.43427 -0.00606 -40.88177 27.81154 61.16232 -3.21753 -1.10380 2.06062 13.01790 27.48800 -6.54974 0.00001 -33.94347 0.00557 -3.88376 1.95929 6.93181 -0.00004 -29.17648 -0.00514 0.79164 -11.06895 4.10721 -0.00275 30.77980 -0.00135 -1.81252 1.47508 -0.40556 -0.00289 22.50620 -0.00370 -1.82348 1.35432 -0.67687 0.89083 -0.66824 0.22933 -35.61429 7.99277 -10.98202 10.35663 0.00718 0.00641 -35.50658 -1.32403 10.45843 27.29903 0.00336 0.00162 3.40585 -8.12422 -17.94190 24.47627 -0.17283 -0.03986 20.80671 -16.62150 -17.19317 4.87700 -1.04399 3.60799 -24.66569 4.20855 -9.07947 2.66500 -0.00001 0.00000 -0.00000 0.00000 10.00000 2.54297 0.00000 0.00000 0.00000 -0.00000 14.99999 9.23200 -0.30100 2.14400 -20.00000 -0.00000 0.00000 4.22499 0.00000 0.00000 -25.00000 0.00000 0.00001 2.65400 0.00001 0.00000 -29.90550 2.49762 -4.33287 8.92000 0.00002 0.00000 -20.00000 -0.00000 0.00000 4.86300 0.00002 -0.00000 -25.00000 0.00000 0.00001 2.76501 -0.00001 0.00001 -29.90550 2.49761 -4.33287 8.68899 -0.12597 -2.08701 -20.00000 -0.00000 0.00000 4.53802 -0.00002 0.00001 -25.00000 0.00000 0.00001 2.30498 0.00000 0.00000 -29.90550 2.49761 -4.33287 8.39099 -0.81699 -3.75801 -20.00000 -0.00000 0.00000 3.04401 0.00001 0.00000 -25.00000 0.00000 0.00001 1.97501 -0.00001 0.00002 -29.90550 2.49762 -4.33287 -2.02937 -0.93829 0.21777 24.55238 2.54668 5.55609 -20.20884 0.01701 0.01325 70.87684 18.07222 -4.71441 -28.17507 0.00334 -0.00593 -1.07041 8.28211 20.28101 -21.29041 0.01029 -0.00369 -2.62996 12.42043 -26.53957 -4.87701 -1.04401 3.60799 37.43813 21.26626 8.20657 -2.66500 0.00000 -0.00002 -0.00001 -0.00000 -5.00000 -2.54301 -0.00002 0.00002 0.00001 0.00000 -60.00000 -9.23200 -0.30101 2.14400 80.00001 -0.00001 0.00001 -4.22499 0.00002 -0.00005 90.00000 -0.00000 0.00001 -2.65400 0.00000 -0.00002 70.00000 -0.00000 0.00001 -8.92000 0.00000 0.00000 80.00000 -0.00001 0.00001 -4.86302 0.00000 -0.00002 90.00000 -0.00000 0.00001 -2.76499 0.00000 0.00000 69.99999 -0.00000 0.00001 -8.68899 -0.12600 -2.08697 80.00000 -0.00001 0.00001 -4.53800 0.00001 -0.00002 90.00000 -0.00000 0.00001 -2.30499 0.00000 0.00000 69.99999 -0.00000 0.00001 -8.39100 -0.81700 -3.75800 80.00001 -0.00001 0.00001 -3.04401 0.00000 0.00000 90.00000 -0.00000 0.00001 -1.97500 0.00001 0.00000 70.00000 -0.00000 0.00001 0.00384 0.73292 0.00122 0.00002 0.01176 0.00487 -0.00043 6.64045 0.02399 16.33890 22.07690 50.44547 
111.68188 79.14050 -184.51527 -1.82592 -1.25123 -85.41525 8.98029 1.90950 2.06462 10.20708 -5.45034 -4.63233 0.00219 -37.06607 0.01004 -11.73961 0.73496 43.49534 0.23148 -26.84678 0.50228 -31.46534 40.11228 41.92677 -3.22738 -1.10870 2.05593 12.85391 27.37293 -6.51264 0.00001 -34.11483 0.00557 -3.84719 1.94528 6.95936 -0.00004 -29.01737 -0.00630 0.76975 -10.86595 4.06719 -0.00275 30.79958 -0.00135 -1.86957 1.51946 -0.39844 -0.00289 22.51462 -0.00370 -1.80975 1.28959 -0.68952 0.89083 -0.67544 0.22563 -35.82718 7.98730 -10.89790 10.37767 0.00729 0.00641 -35.14120 -1.70506 10.65018 27.16179 0.00336 0.00162 4.06655 -8.42087 -18.49642 24.37287 -0.12969 -0.03782 13.78199 -13.78901 -16.18344 4.87700 -1.04399 3.60799 -24.66569 4.20855 -9.07947 2.66500 -0.00001 0.00000 -0.00000 0.00000 10.00000 2.54297 0.00000 0.00000 0.00000 -0.00000 14.99999 9.23200 -0.30100 2.14400 -20.00000 -0.00000 0.00000 4.22499 0.00000 0.00000 -25.00000 0.00000 0.00001 2.65400 0.00001 0.00000 -29.90550 2.49762 -4.33287 8.92000 0.00002 0.00000 -20.00000 -0.00000 0.00000 4.86300 0.00002 -0.00000 -25.00000 0.00000 0.00001 2.76501 -0.00001 0.00001 -29.90550 2.49761 -4.33287 8.68899 -0.12597 -2.08701 -20.00000 -0.00000 0.00000 4.53802 -0.00002 0.00001 -25.00000 0.00000 0.00001 2.30498 0.00000 0.00000 -29.90550 2.49761 -4.33287 8.39099 -0.81699 -3.75801 -20.00000 -0.00000 0.00000 3.04401 0.00001 0.00000 -25.00000 0.00000 0.00001 1.97501 -0.00001 0.00002 -29.90550 2.49762 -4.33287 -2.02997 -0.93829 0.21777 24.47266 2.51998 5.52006 -20.21792 0.01396 0.00992 70.88864 18.10221 -4.72271 -28.19088 0.00334 -0.00593 -1.05018 8.28188 20.18413 -21.29041 0.01029 0.00040 -2.61749 12.47555 -21.80866 -4.87701 -1.04401 3.60799 37.43813 21.26626 8.20657 -2.66500 0.00000 -0.00002 -0.00001 -0.00000 -5.00000 -2.54301 -0.00002 0.00002 0.00001 0.00000 -60.00000 -9.23200 -0.30101 2.14400 80.00001 -0.00001 0.00001 -4.22499 0.00002 -0.00005 90.00000 -0.00000 0.00001 -2.65400 0.00000 -0.00002 70.00000 -0.00000 0.00001 -8.92000 0.00000 0.00000 80.00000 -0.00001 0.00001 -4.86302 0.00000 -0.00002 90.00000 -0.00000 0.00001 -2.76499 0.00000 0.00000 69.99999 -0.00000 0.00001 -8.68899 -0.12600 -2.08697 80.00000 -0.00001 0.00001 -4.53800 0.00001 -0.00002 90.00000 -0.00000 0.00001 -2.30499 0.00000 0.00000 69.99999 -0.00000 0.00001 -8.39100 -0.81700 -3.75800 80.00001 -0.00001 0.00001 -3.04401 0.00000 0.00000 90.00000 -0.00000 0.00001 -1.97500 0.00001 0.00000 70.00000 -0.00000 0.00001 0.00384 0.73292 0.00122 0.00002 0.01176 0.00487 -0.00043 6.63376 0.01773 16.32048 21.98661 49.72655 
